<svg xmlns="http://www.w3.org/2000/svg" width="420" height="160" viewBox="0 0 420 160" role="img" aria-labelledby="title desc">
  <title id="title">Turkiye Katilim Sigorta logosu</title>
  <desc id="desc">Mavi yildiz ve hilal formlari ile Turkiye Katilim Sigorta yazi logosu.</desc>
  <rect width="420" height="160" fill="#ffffff"/>
  <g transform="translate(10 8) scale(0.7)">
    <path
      d="M93 64c42-23 92-31 130-24-37 2-76 14-109 36 18 10 31 28 39 48-20-13-43-22-68-25z"
      fill="#066c9f"
    />
    <path
      d="M86 112c42-30 99-44 147-38-43 5-89 23-122 51 20 6 39 17 53 32-24-8-50-11-78-8z"
      fill="#066c9f"
    />
    <path
      d="M97 159c38-29 91-46 139-47-39 10-78 31-108 59 22 1 43 7 62 18-29 0-58 4-93 15z"
      fill="#066c9f"
    />
    <path
      d="M31 111l26-16 1-31 22 21 31-7-14 28 17 26-31-3-21 23-5-30-27-11z"
      fill="#0a70a5"
    />
  </g>
  <g fill="#1f1f24" font-family="Arial, Helvetica, sans-serif" font-weight="700">
    <text x="190" y="54" font-size="30" letter-spacing="0.5">TURKIYE</text>
    <text x="190" y="92" font-size="30" letter-spacing="0.5">KATILIM</text>
    <text x="190" y="130" font-size="30" letter-spacing="0.5">SIGORTA</text>
  </g>
</svg>
