<?xml version="1.0" encoding="utf-8"?>
<!-- Generator: Adobe Illustrator 27.3.1, SVG Export Plug-In . SVG Version: 6.00 Build 0)  -->
<svg version="1.1" id="Layer_1" xmlns="http://www.w3.org/2000/svg" xmlns:xlink="http://www.w3.org/1999/xlink" x="0px" y="0px"
	 viewBox="0 0 130 24" style="enable-background:new 0 0 130 24;" xml:space="preserve">
<style type="text/css">
	.st0{fill:#235BAA;}
	.st1{fill:#086835;}
	.st2{fill:#E51E25;}
	.st3{fill:#010101;}
</style>
<g>
	<path class="st0" d="M55.5,4.8c-0.7,0-1.2,0.1-1.9,0.3c-0.1,0-0.2,0.1-0.2,0.2c0,0.1,0,0.2,0,0.3c0.1,0.2,0.3,1.1,0.6,1
		c0.3-0.1,0.6-0.1,0.9-0.1c0.4,0,0.6,0,0.8,0c0.4,0.1,0.7,0.4,0.7,0.9v0.5c-0.5-0.1-1.1-0.2-1.7-0.2c-1.8,0-2,0.9-2,2
		c0,1.3,0.4,2.2,2,2.2c1.1,0,3.6-0.2,3.6-1.2V7.5C58.3,5.7,57.4,4.8,55.5,4.8 M56.4,10.3c-0.2,0.1-0.7,0.2-1.2,0.2
		c-0.6,0-0.7-0.2-0.7-0.8c0-0.6,0.1-0.8,0.7-0.8c0.5,0,1,0.1,1.2,0.2V10.3z"/>
	<path class="st0" d="M41.5,2.5h-5c-0.2,0-0.5,0.1-0.5,0.3v8.8c0,0.3,1.1,0.3,1.5,0.3c0.2,0,0.5-0.2,0.5-0.4V7.9h2.9
		c0.3,0,0.3-1,0.3-1.3c0-0.2-0.1-0.5-0.3-0.5H38v-2h3.6c0.3,0,0.3-1,0.3-1.3C41.9,2.7,41.7,2.5,41.5,2.5"/>
	<path class="st0" d="M44.4,4V2.8c0-0.2-0.2-0.4-0.5-0.4c-0.3,0-1.3,0-1.3,0.3V4c0,0.3,1,0.3,1.3,0.3C44.2,4.3,44.4,4.2,44.4,4"/>
	<path class="st0" d="M49.8,4.8c-0.6,0-1.3,0.2-2,0.5V2.9c0-0.3-0.2-0.5-0.5-0.5c-0.3,0-1.4,0-1.4,0.3v8c0,0.2,0.1,0.4,0.3,0.6
		c0.8,0.5,2.8,0.6,3.5,0.6c1.4,0,1.9-0.8,1.9-2.5V7.3C51.7,6,51.7,4.8,49.8,4.8 M49.9,9.5c0,0.5-0.1,0.9-0.5,0.9
		c-0.6,0-1.6-0.1-1.6-0.2V6.8c0.3-0.2,1-0.3,1.6-0.3c0.4,0,0.5,0.4,0.5,0.9V9.5z"/>
	<path class="st0" d="M44,4.8c-0.3,0-1.4,0-1.4,0.3v6.5c0,0.3,1,0.3,1.4,0.3c0.3,0,0.5-0.1,0.5-0.5V5.3C44.5,5,44.3,4.8,44,4.8"/>
	<path class="st0" d="M62.5,12c-1.8,0-2.9-0.9-2.9-3V7.3c0-1.6,0.7-2.5,2.9-2.5h0.1c2.1,0,2.4,1.1,2.4,2.3v0.6C65,8.4,64.6,9,61.5,9
		c0,0.9,0.3,1.3,1,1.3c0.7,0,1.4-0.2,2-0.3h0c0.2,0,0.4,0.8,0.5,1.1c0,0.2,0,0.4-0.2,0.5C64.1,11.8,63.3,12,62.5,12 M63.2,6.9
		c0-0.5-0.1-0.7-0.6-0.7c-0.7,0-1.1,0.2-1.1,1.1v0.4c0.6,0,1.7-0.1,1.7-0.3V6.9z"/>
	<path class="st0" d="M70.1,7.3c0-0.4-0.1-0.8-0.4-0.8c-0.9,0-1.4,0.2-1.4,0.3v4.8c0,0.2-0.2,0.4-0.5,0.4c-0.3,0-1.4,0-1.4-0.3V6.1
		c0-0.5,1.4-1.3,3.5-1.3c0.5,0,1.1,0.3,1.3,0.5c0.5-0.3,1.3-0.5,2.4-0.5c1.9,0,2,1.2,2,2.5v4.3c0,0.2-0.2,0.4-0.5,0.4
		c-0.3,0-1.4,0-1.4-0.3v-4c0-0.7-0.1-1.2-0.4-1.2c-0.9,0-1.4,0.2-1.4,0.3v4.8c0,0.2-0.3,0.4-0.5,0.4c-0.3,0-1.4,0-1.4-0.3V7.3z"/>
	<path class="st0" d="M79.9,12C78.1,12,77,11,77,9V7.3c0-1.6,0.7-2.5,2.9-2.5h0.1c2.1,0,2.4,1.1,2.4,2.3v0.6c0,0.6-0.5,1.2-3.6,1.3
		c0,0.9,0.3,1.3,1,1.3c0.7,0,1.4-0.2,2-0.3h0c0.2,0,0.4,0.8,0.5,1.1c0,0.2,0,0.4-0.2,0.5C81.4,11.8,80.6,12,79.9,12 M80.6,6.9
		c0-0.5-0.1-0.7-0.6-0.7c-0.7,0-1.1,0.2-1.1,1.1v0.4c0.6,0,1.7-0.1,1.7-0.3V6.9z"/>
	<path class="st0" d="M92.7,11.6c0,0.2-0.2,0.4-0.5,0.4c-0.4,0-1.5,0-1.5-0.3V2.7c0-0.3,1.1-0.3,1.5-0.3c0.2,0,0.5,0.1,0.5,0.4V11.6
		z"/>
	<path class="st0" d="M100,11.6c0,0.2-0.2,0.4-0.5,0.4c-0.4,0-1.5,0-1.5-0.3V2.7c0-0.3,1.1-0.3,1.5-0.3c0.2,0,0.5,0.1,0.5,0.4V11.6z
		"/>
	<path class="st0" d="M87.5,8.1l1.7-2.7c0-0.1,0.1-0.2,0.1-0.2c0-0.2-0.2-0.4-0.8-0.4c-0.3,0-0.9,0-1.1,0.3l-1.7,2.8v-5
		c0-0.4-0.2-0.5-0.5-0.5c-0.3,0-1.4,0-1.4,0.3v8.9c0,0.3,1,0.3,1.4,0.3c0.3,0,0.5-0.1,0.5-0.5V8.3l2,3.3c0.2,0.4,1,0.4,1.1,0.4
		c0.6,0,0.8-0.1,0.8-0.3C89.4,11,88.2,9.2,87.5,8.1"/>
	<path class="st0" d="M95.9,4.8c-0.3,0-1.4,0-1.4,0.3v6.5c0,0.3,1,0.3,1.4,0.3c0.3,0,0.5-0.1,0.5-0.5V5.3C96.3,5,96.1,4.8,95.9,4.8"
		/>
	<path class="st0" d="M96.3,3.9V2.8c0-0.2-0.2-0.4-0.5-0.4c-0.3,0-1.4,0-1.4,0.3V4c0,0.3,1,0.3,1.4,0.3C96.1,4.3,96.3,4.2,96.3,3.9"
		/>
	<path class="st0" d="M103.2,4.8c-0.3,0-1.4,0-1.4,0.3v6.5c0,0.3,1,0.3,1.4,0.3c0.3,0,0.5-0.1,0.5-0.5V5.3
		C103.6,5,103.4,4.8,103.2,4.8"/>
	<path class="st0" d="M103.6,3.9V2.8c0-0.2-0.2-0.4-0.5-0.4c-0.3,0-1.4,0-1.4,0.3V4c0,0.3,1,0.3,1.4,0.3
		C103.3,4.3,103.6,4.2,103.6,3.9"/>
	<path class="st0" d="M108.9,8.1l1.7-2.7c0-0.1,0.1-0.2,0.1-0.2c0-0.2-0.2-0.4-0.8-0.4c-0.3,0-0.9,0-1.1,0.3l-1.7,2.8v-5
		c0-0.4-0.2-0.5-0.5-0.5c-0.3,0-1.4,0-1.4,0.3v8.9c0,0.3,1,0.3,1.4,0.3c0.3,0,0.5-0.1,0.5-0.5V8.3l2,3.3c0.2,0.4,1,0.4,1.1,0.4
		c0.6,0,0.8-0.1,0.8-0.3C110.8,11,109.6,9.2,108.9,8.1"/>
	<path class="st1" d="M13.2,11.9h3.5c3.8,0,5.7-2,5.7-4.8v0c0-2.8-1.9-4.7-5.6-4.7h-3.6V11.9z M16.4,9.3V5.1h0.5
		c1.4,0,2.4,0.6,2.4,2.1v0c0,1.5-0.9,2.1-2.4,2.1H16.4z"/>
	<rect x="23.3" y="2.5" class="st1" width="3.2" height="9.5"/>
	<rect x="5.6" y="5.6" class="st2" width="3.2" height="3.2"/>
	<rect x="31.1" y="0" class="st3" width="0.2" height="14.5"/>
	<rect x="8.8" y="2.5" class="st1" width="3.2" height="9.5"/>
	<rect x="2.5" y="2.5" class="st1" width="3.2" height="9.5"/>
</g>
</svg>
