<svg width="56" height="16" viewBox="0 0 56 16" fill="none" xmlns="http://www.w3.org/2000/svg">
    <path d="M46.0434 15.8447L45.9009 15.4346H44.9998L44.8529 15.8447C44.8159 15.9547 44.7375 15.999 44.6032 15.999C44.5696 16.0021 44.5357 15.9979 44.5038 15.9868C44.472 15.9758 44.4428 15.958 44.4182 15.9348C44.3937 15.9115 44.3744 15.8834 44.3615 15.8521C44.3487 15.8208 44.3426 15.7871 44.3437 15.7533C44.3514 15.6792 44.3696 15.6065 44.3977 15.5375L45.122 13.6185H45.1205C45.1678 13.4913 45.2574 13.4471 45.3942 13.4471H45.5268C45.6537 13.4471 45.7664 13.4785 45.8277 13.6528L46.5034 15.5375C46.5316 15.6065 46.5497 15.6792 46.5574 15.7533C46.5549 15.8205 46.5261 15.884 46.4771 15.93C46.4282 15.976 46.3631 16.0008 46.296 15.999C46.1731 15.999 46.0848 15.9547 46.0434 15.8447ZM45.121 15.0445H45.7768L45.4591 14.0557H45.452L45.121 15.0445ZM43.2718 15.7189V14.9931H43.269L42.5832 13.85C42.5544 13.8061 42.5381 13.7552 42.536 13.7028C42.536 13.5113 42.7099 13.4457 42.8194 13.4457C42.8736 13.4422 42.9274 13.4563 42.9728 13.4859C43.0183 13.5156 43.053 13.5591 43.0718 13.6101L43.5593 14.5103L44.0441 13.6101C44.1082 13.4872 44.171 13.4457 44.2864 13.4457C44.3216 13.444 44.3567 13.4493 44.3897 13.4613C44.4228 13.4733 44.4531 13.4919 44.4788 13.5158C44.5046 13.5398 44.5254 13.5687 44.5398 13.6008C44.5543 13.6329 44.5622 13.6676 44.5631 13.7028C44.561 13.7552 44.5447 13.8061 44.5159 13.85L43.8302 14.9931V15.719C43.8302 15.7933 43.8007 15.8645 43.7483 15.917C43.6959 15.9696 43.6248 15.9991 43.5507 15.9991C43.4766 15.9991 43.4055 15.9696 43.3531 15.917C43.3007 15.8645 43.2713 15.7933 43.2713 15.719L43.2718 15.7189ZM42.2353 15.8446L42.0928 15.4346H41.1918L41.0449 15.8446C41.0079 15.9546 40.9295 15.999 40.7952 15.999C40.7616 16.002 40.7277 15.9978 40.6958 15.9868C40.6639 15.9757 40.6348 15.9579 40.6102 15.9347C40.5857 15.9115 40.5664 15.8833 40.5535 15.852C40.5407 15.8207 40.5346 15.787 40.5357 15.7532C40.5434 15.6791 40.5616 15.6064 40.5897 15.5375L41.314 13.6184H41.3125C41.3598 13.4913 41.4494 13.447 41.5863 13.447H41.7188C41.8458 13.447 41.9584 13.4784 42.0197 13.6527L42.6955 15.5375C42.7236 15.6064 42.7418 15.6791 42.7495 15.7532C42.747 15.8206 42.718 15.8842 42.6689 15.9303C42.6197 15.9763 42.5544 16.001 42.4872 15.999C42.3651 15.999 42.2768 15.9547 42.2354 15.8447L42.2353 15.8446ZM41.3129 15.0444H41.9687L41.6509 14.0557H41.6438L41.3129 15.0444ZM47.1298 15.7174V13.9629H46.5997C46.44 13.9629 46.3089 13.8818 46.3089 13.7271C46.3089 13.5725 46.4386 13.4913 46.5997 13.4913H48.2178C48.379 13.4913 48.5086 13.5725 48.5086 13.7271C48.5086 13.8818 48.3789 13.9629 48.2178 13.9629H47.6889V15.7176C47.6889 15.7919 47.6595 15.8631 47.6071 15.9156C47.5547 15.9681 47.4836 15.9976 47.4095 15.9976C47.3354 15.9976 47.2643 15.9681 47.2119 15.9156C47.1595 15.8631 47.1301 15.7919 47.1301 15.7176L47.1298 15.7174ZM39.7762 15.7174V14.896H38.7596V15.7175C38.7596 15.7918 38.7301 15.863 38.6777 15.9155C38.6253 15.968 38.5543 15.9975 38.4802 15.9975C38.4061 15.9975 38.335 15.968 38.2826 15.9155C38.2302 15.863 38.2008 15.7918 38.2008 15.7175V13.7271C38.2008 13.6529 38.2302 13.5816 38.2826 13.5291C38.335 13.4766 38.4061 13.4471 38.4802 13.4471C38.5543 13.4471 38.6253 13.4766 38.6777 13.5291C38.7301 13.5816 38.7596 13.6529 38.7596 13.7271V14.4244H39.7761V13.7271C39.7761 13.6529 39.8055 13.5816 39.8579 13.5291C39.9103 13.4766 39.9814 13.4471 40.0555 13.4471C40.1296 13.4471 40.2007 13.4766 40.2531 13.5291C40.3055 13.5816 40.3349 13.6529 40.3349 13.7271V15.7175C40.3349 15.7918 40.3055 15.863 40.2531 15.9155C40.2007 15.968 40.1296 15.9975 40.0555 15.9975C39.9814 15.9975 39.9103 15.968 39.8579 15.9155C39.8055 15.863 39.7761 15.7918 39.7761 15.7175L39.7762 15.7174ZM9.17272 12.2997C8.70792 12.0854 8.30448 11.9768 7.96089 11.9768C7.59941 11.9785 7.23911 12.0182 6.88592 12.0954C6.50251 12.1763 6.11159 12.216 5.71978 12.214C4.0546 12.214 2.68458 11.6553 1.6097 10.5379C0.536085 9.41907 -0.000969924 7.9945 -0.00146484 6.26417C-0.00146484 4.5338 0.473253 3.11639 1.42141 1.95183C1.90588 1.36456 2.50945 0.887277 3.19205 0.551675C3.9212 0.188441 4.72445 -0.000395785 5.53871 6.22818e-07C7.1126 6.22818e-07 8.46508 0.55632 9.59615 1.66896C10.1108 2.17189 10.5218 2.81957 10.8294 3.61199C11.1359 4.39687 11.2926 5.23247 11.2913 6.07532C11.2897 6.73535 11.1981 7.39207 11.019 8.02722C10.8379 8.67733 10.7471 9.03407 10.7466 9.09742C10.7466 9.43323 10.797 9.69042 10.8977 9.869C10.9077 9.89051 11.0588 10.0948 11.3511 10.482C11.6134 10.8278 11.7446 11.1112 11.7446 11.3321C11.7471 11.5021 11.7149 11.6709 11.6499 11.8279C11.5849 11.9849 11.4885 12.127 11.3667 12.2453C11.1143 12.4968 10.7864 12.6225 10.3829 12.6224C10.0395 12.6225 9.6361 12.5149 9.17272 12.2997ZM3.90345 3.73077C3.4187 4.28659 3.17632 5.01585 3.17632 5.91853H3.17781C3.17781 7.01024 3.43537 7.87043 3.95049 8.49907C4.38395 9.02347 4.88337 9.28591 5.44875 9.28641C6.3171 9.28641 6.98812 8.9611 7.46181 8.31049C7.87525 7.74466 8.08196 7.02071 8.08196 6.13863C8.08196 5.25701 7.86526 4.46541 7.43049 3.88817C6.97715 3.26949 6.34653 2.95992 5.53864 2.95947C4.89282 2.95929 4.34775 3.21639 3.90345 3.73077ZM23.0159 9.84349V2.4707C23.0159 0.0716318 24.8111 0.0687908 24.8111 0.0687908C25.2701 0.0687908 26.4022 0.1574 26.4022 2.30349V10.0108C26.4022 12.157 25.2688 12.2455 24.8111 12.2455C24.8109 12.2454 23.0159 12.2441 23.0159 9.84349ZM38.3048 9.84201V2.46887C38.3048 0.0698054 40.1 0.0669645 40.1 0.0669645C40.559 0.0669645 41.6911 0.155573 41.6911 2.30173V5.40115C42.5622 4.1866 43.8638 2.37336 44.712 1.1831C46.0861 -0.745869 47.5289 0.362959 47.5289 0.362959C47.8981 0.647048 48.7579 1.41889 47.5289 3.14352C46.9929 3.89784 46.1548 5.06646 45.3822 6.14512C46.1544 7.22324 46.9918 8.39234 47.5275 9.14477C48.755 10.8696 47.8954 11.6425 47.5275 11.9253C47.5275 11.9253 46.0847 13.0342 44.7104 11.1051C44.2698 10.4864 43.7538 9.78201 43.2562 9.10899C42.8985 9.61196 42.4236 10.2792 41.8733 11.0508C41.6805 11.3324 41.4513 11.5872 41.1917 11.8084C40.8295 12.2156 40.3576 12.2442 40.0996 12.2442C40.0998 12.2439 38.3048 12.2411 38.3048 9.84167V9.84201ZM12.208 8.3803V2.41618C12.208 0.0514749 13.9545 0.0671675 13.9545 0.0671675C15.2261 0.0671675 15.594 0.955893 15.594 2.39907V7.30867C15.594 8.96478 17.1351 9.00327 17.1351 9.00327C17.1351 9.00327 18.6763 8.96471 18.6763 7.30867V2.40049C18.6763 0.957382 19.0441 0.0685879 20.3158 0.0685879C20.3158 0.0685879 22.0623 0.0514749 22.0608 2.41767V8.3803C22.0608 9.44049 21.1655 12.2426 17.1351 12.2426C13.1048 12.2426 12.208 9.44049 12.208 8.3803ZM28.4007 9.94922C28.1954 9.6334 27.6381 8.91757 27.3571 7.47865C27.34 7.3801 27.3044 7.17576 27.2716 6.94429C27.2616 6.8728 27.253 6.80279 27.2446 6.72852C27.2202 6.54658 27.2064 6.36337 27.2033 6.17982C27.2071 5.99584 27.2209 5.8122 27.2446 5.6297C27.2517 5.55686 27.2617 5.48969 27.2703 5.4211C27.3045 5.17963 27.3416 4.96791 27.3586 4.8724C27.6409 3.43924 28.1955 2.72482 28.4008 2.40901C28.6802 1.97895 30.14 0.128517 32.6849 0.128517C35.2298 0.128517 36.5756 1.63453 36.9177 1.97605C37.2612 2.31756 38.1595 3.95074 36.671 4.66231C35.1825 5.37389 34.6224 4.11361 34.6224 4.11361C34.3114 3.66249 33.8428 3.3448 33.3093 3.2234C32.4155 3.0219 31.4631 3.27197 30.8144 4.34623C30.5853 4.73992 30.4397 5.17673 30.3867 5.62937C30.3867 5.62937 30.3824 5.65642 30.3768 5.70377C30.3587 5.86127 30.3497 6.01967 30.3498 6.1782C30.3505 6.33671 30.3595 6.49507 30.3768 6.65263C30.3825 6.69998 30.3867 6.72703 30.3867 6.72703C30.4397 7.18013 30.5853 7.61741 30.8144 8.01159C31.4631 9.08613 32.4155 9.33613 33.3093 9.13442C33.843 9.01355 34.3118 8.69574 34.6224 8.24421C34.6224 8.24421 35.1825 6.98393 36.671 7.69551C38.158 8.40573 37.2598 10.0403 36.9176 10.3818C36.5754 10.7233 35.2311 12.2294 32.6849 12.2294C30.1387 12.2294 28.6802 10.3793 28.4007 9.94922Z" fill="#133250"/>
    <path d="M54.867 7.25312L54.7999 7.30452C54.0814 7.88318 52.9123 7.58861 52.3535 6.83868L51.8331 6.14429L49.3311 9.48213C48.7722 10.2323 48.9005 11.3084 49.6191 11.8869C49.7892 12.0241 49.9853 12.1252 50.1956 12.1841C50.4059 12.2429 50.626 12.2583 50.8424 12.2293C51.0588 12.2003 51.2671 12.1275 51.4545 12.0154C51.642 11.9032 51.8048 11.754 51.9329 11.5768L54.7675 7.74459C55.0073 7.41511 55.178 7.04036 55.2693 6.64293C55.2032 6.88387 55.0625 7.09753 54.8673 7.25305" fill="#94C11F"/>
    <path d="M54.8001 4.98531L54.8671 5.03672C55.0627 5.19183 55.2036 5.40564 55.2691 5.64683C55.1779 5.2499 55.0073 4.87563 54.7676 4.54666L51.9331 0.713013C51.8049 0.535831 51.6422 0.386613 51.4547 0.274424C51.2673 0.162235 51.059 0.0894188 50.8426 0.0603994C50.6262 0.0313801 50.4061 0.0467637 50.1958 0.105616C49.9855 0.164467 49.7893 0.265559 49.6192 0.402746C49.2721 0.689694 49.0485 1.09958 48.9949 1.54734C48.9413 1.9951 49.0617 2.44637 49.3313 2.8075L51.8333 6.14541L52.3536 5.45101C52.9125 4.70088 54.0813 4.40793 54.8015 4.98518" fill="#E72176"/>
    <path d="M55.3321 6.1441V6.13551C55.3279 5.96995 55.3069 5.80526 55.2694 5.64397C55.2033 5.40303 55.0625 5.18937 54.8673 5.03385L54.8003 4.98245C54.0818 4.40378 52.9127 4.69836 52.3538 5.44828L51.8335 6.14282L52.3538 6.83721C52.9127 7.58734 54.0816 7.88029 54.8003 7.30305L54.8673 7.25164C55.0629 7.09653 55.2038 6.88272 55.2694 6.64153C55.3069 6.48024 55.3279 6.31554 55.3321 6.14999V6.1414V6.1441Z" fill="#133250"/>
</svg>
